<!-- from https://thenounproject.com/icon/filter-4716684/ -->
<svg width="20" height="20" viewBox="0 0 1200 1200" xmlns="http://www.w3.org/2000/svg">
    <path d="m75.008 56.184c-4.8594-0.003906-9.5312 1.875-13.031 5.2461-3.5039 3.3711-5.5586 7.9688-5.7344 12.828-0.17578 4.8555 1.5391 9.5938 4.7891 13.207l421.6 471.01v566.52c-0.019531 4.5625 1.6289 8.9727 4.6289 12.41 3.0039 3.4336 7.1562 5.6562 11.68 6.2539 4.5234 0.59375 9.1094-0.48047 12.895-3.0234l197.23-131.21c5.2109-3.4961 8.3281-9.3672 8.3047-15.641v-435.3l421.6-471.01c3.25-3.6133 4.9648-8.3516 4.7891-13.207-0.17578-4.8594-2.2305-9.457-5.7344-12.828-3.5-3.3711-8.1719-5.25-13.031-5.2461zm41.801 37.508 966.38 0.003906-398.48 445.13c-3.1211 3.4492-4.8516 7.9375-4.8477 12.594v432.25l-159.73 106.3v-538.55c0.042969-4.6367-1.6328-9.1211-4.7031-12.594z"/>
</svg>