<svg width="100" height="20" viewBox="0 0 29 6" xmlns="http://www.w3.org/2000/svg">
    <svg width="10" height="6">
        <rect fill="#21468B" width="9" height="6"/>
        <rect fill="#FFF" width="9" height="4"/>
        <rect fill="#AE1C28" width="9" height="2"/>
    </svg>
    <svg width="10" height="6" viewBox="0 0 60 30" x="9">
        <clipPath id="s">
            <path d="M0,0 v30 h60 v-30 z"/>
        </clipPath>
        <clipPath id="t">
            <path d="M30,15 h30 v15 z v15 h-30 z h-30 v-15 z v-15 h30 z"/>
        </clipPath>
        <g clip-path="url(#s)">
            <path d="M0,0 v30 h60 v-30 z" fill="#012169"/>
            <path d="M0,0 L60,30 M60,0 L0,30" stroke="#fff" stroke-width="6"/>
            <path d="M0,0 L60,30 M60,0 L0,30" clip-path="url(#t)" stroke="#C8102E" stroke-width="4"/>
            <path d="M30,0 v30 M0,15 h60" stroke="#fff" stroke-width="10"/>
            <path d="M30,0 v30 M0,15 h60" stroke="#C8102E" stroke-width="6"/>
        </g>
    </svg>
    <svg width="10" height="6" x="19">
        <rect fill="#FFCE00" width="10" height="6"/>
        <rect fill="#D00" width="10" height="4"/>
        <rect fill="#000" width="10" height="2"/>
    </svg>
</svg>