<!-- from https://thenounproject.com/icon/bicycle-1156058/a -->
<svg width="20" height="20" viewBox="300 300 650 650" xmlns="http://www.w3.org/2000/svg">
    <path d="m687.16 297.72c-14.168 0-27.754 5.6289-37.773 15.645s-15.652 23.602-15.656 37.77c0.011719 14.16 5.6484 27.738 15.664 37.75 10.02 10.008 23.602 15.633 37.766 15.633 14.16 0 27.746-5.625 37.762-15.633 10.02-10.012 15.656-23.59 15.668-37.75-0.003906-14.168-5.6367-27.754-15.656-37.77-10.02-10.016-23.605-15.645-37.773-15.645zm-84.805 103.25c-5.793 0.10547-11.316 2.4609-15.398 6.5703l-133.58 133.59h0.003906c-4.8711 4.8945-7.1914 11.77-6.2891 18.613s4.9258 12.883 10.898 16.348l122.46 70.719v165.29c-0.1875 6.0234 2.0742 11.863 6.2656 16.188 4.1953 4.3281 9.9609 6.7695 15.988 6.7695 6.0234 0 11.793-2.4414 15.984-6.7695 4.1953-4.3242 6.457-10.164 6.2695-16.188v-178.14c0.007812-3.9102-1.0156-7.7539-2.9688-11.145-1.9492-3.3906-4.7617-6.2031-8.1445-8.1641l-87.832-50.668 92.996-92.973 57.031 57.039c4.1719 4.1523 9.8203 6.4844 15.707 6.4844h89.07c5.9375 0.050781 11.648-2.2734 15.863-6.457 4.2148-4.1797 6.5859-9.8711 6.5859-15.809s-2.3711-11.629-6.5859-15.809c-4.2148-4.1797-9.9258-6.5039-15.863-6.4531h-79.871l-82.496-82.461c-4.2539-4.2812-10.062-6.6523-16.098-6.5703zm-187.88 251.98c-68.695 0-124.67 55.984-124.67 124.7 0 68.637 55.984 124.65 124.67 124.65 68.691 0 124.67-56.012 124.68-124.65 0-68.723-55.98-124.7-124.68-124.7zm371.06 0c-68.699 0-124.67 55.984-124.67 124.7 0 68.637 55.984 124.65 124.67 124.65 68.691 0 124.66-56.012 124.67-124.65 0-68.723-55.977-124.7-124.67-124.7zm-371.06 26.734c54.258 0 97.957 43.699 97.957 97.969 0 54.238-43.703 97.914-97.957 97.914s-97.949-43.672-97.957-97.914c0-54.27 43.699-97.969 97.957-97.969zm371.06 0c54.258 0 97.953 43.699 97.953 97.969 0 54.238-43.699 97.914-97.953 97.914s-97.945-43.672-97.953-97.914c0-54.27 43.695-97.969 97.953-97.969z"/>
</svg>